<?xml version="1.0" encoding="UTF-8"?>
<svg width="752pt" height="752pt" version="1.1" viewBox="0 0 752 752" xmlns="http://www.w3.org/2000/svg">
 <g>
  <path d="m431.25 226.04v142.07h-31.574v15.785h31.57l0.003906 142.07c0 6.2812 2.4922 12.305 6.9336 16.742 4.4414 4.4414 10.465 6.9375 16.742 6.9375h23.68v-15.785h-23.68c-4.3555 0-7.8906-3.5352-7.8906-7.8945v-142.07h31.57v-15.785h-31.57v-142.07c0-4.3594 3.5352-7.8945 7.8906-7.8945h23.68v-15.785h-23.68c-6.2773 0-12.301 2.4961-16.742 6.9336-4.4414 4.4414-6.9336 10.465-6.9336 16.746z"/>
  <path d="m581.22 155h-63.145c-6.2773 0-12.301 2.4961-16.742 6.9375-4.4414 4.4414-6.9336 10.461-6.9336 16.742v63.145c0 6.2812 2.4922 12.305 6.9336 16.742 4.4414 4.4414 10.465 6.9375 16.742 6.9375h63.145c6.2812 0 12.305-2.4961 16.746-6.9375 4.4375-4.4375 6.9336-10.461 6.9336-16.742v-63.145c0-6.2812-2.4961-12.301-6.9336-16.742-4.4414-4.4414-10.465-6.9375-16.746-6.9375zm-15.785 94.719h-31.57c-4.3594 0-7.8945-3.5352-7.8945-7.8945 0-4.3594 3.5352-7.8945 7.8945-7.8945h7.8945l-0.003906-36.195-2.3125 2.3125c-3.0977 2.9922-8.0195 2.9492-11.062-0.097657-3.0469-3.043-3.0898-7.9648-0.097656-11.062l15.785-15.785v-0.003906c2.2578-2.2539 5.6523-2.9297 8.6016-1.707 2.9492 1.2188 4.8711 4.0977 4.8711 7.2891v55.25h7.8945c4.3594 0 7.8945 3.5352 7.8945 7.8945 0 4.3594-3.5352 7.8945-7.8945 7.8945z"/>
  <path d="m581.22 320.75h-63.145c-6.2773 0-12.301 2.4961-16.742 6.9375-4.4414 4.4375-6.9336 10.461-6.9336 16.742v63.145c0 6.2812 2.4922 12.301 6.9336 16.742 4.4414 4.4414 10.465 6.9375 16.742 6.9375h63.145c6.2812 0 12.305-2.4961 16.746-6.9375 4.4375-4.4414 6.9336-10.461 6.9336-16.742v-63.145c0-6.2812-2.4961-12.305-6.9336-16.742-4.4414-4.4414-10.465-6.9375-16.746-6.9375zm-15.785 78.93c4.3594 0 7.8945 3.5352 7.8945 7.8945s-3.5352 7.8906-7.8945 7.8906h-31.57c-4.3594 0-7.8945-3.5312-7.8945-7.8906 0-15.785 10.504-23.68 18.941-29.992 8.0664-6.0469 12.629-9.8438 12.629-17.363v-0.003906c0-4.3594-3.5312-7.8906-7.8906-7.8906-4.3594 0-7.8945 3.5312-7.8945 7.8906s-3.5312 7.8945-7.8906 7.8945-7.8945-3.5352-7.8945-7.8945c0-8.4609 4.5117-16.277 11.84-20.508 7.3242-4.2266 16.352-4.2266 23.68 0 7.3242 4.2305 11.84 12.047 11.84 20.508 0 15.785-10.504 23.68-18.941 29.992h-0.003907c-3.9336 2.582-7.4219 5.7773-10.332 9.4727z"/>
  <path d="m581.22 486.5h-63.145c-6.2773 0-12.301 2.4961-16.742 6.9336-4.4414 4.4414-6.9336 10.465-6.9336 16.746v63.145c0 6.2773 2.4922 12.301 6.9336 16.742 4.4414 4.4414 10.465 6.9336 16.742 6.9336h63.145c6.2812 0 12.305-2.4922 16.746-6.9336 4.4375-4.4414 6.9336-10.465 6.9336-16.742v-63.145c0-6.2812-2.4961-12.305-6.9336-16.746-4.4414-4.4375-10.465-6.9336-16.746-6.9336zm-7.8945 71.039 0.003906-0.003907c0 8.4609-4.5156 16.277-11.84 20.508-7.3281 4.2305-16.355 4.2305-23.68 0-7.3281-4.2305-11.84-12.047-11.84-20.508 0-4.3594 3.5352-7.8906 7.8945-7.8906s7.8906 3.5312 7.8906 7.8906c0 3.1953 1.9258 6.0703 4.875 7.293 2.9492 1.2227 6.3438 0.54688 8.6016-1.7109 2.2578-2.2578 2.9297-5.6523 1.7109-8.6016-1.2227-2.9492-4.1016-4.8711-7.293-4.8711-4.3594 0-7.8945-3.5352-7.8945-7.8945s3.5352-7.8906 7.8945-7.8906c3.1914 0 6.0703-1.9258 7.293-4.875 1.2188-2.9492 0.54688-6.3438-1.7109-8.6016-2.2578-2.2578-5.6523-2.9336-8.6016-1.7109-2.9492 1.2227-4.875 4.1016-4.875 7.293 0 4.3594-3.5312 7.8945-7.8906 7.8945s-7.8945-3.5352-7.8945-7.8945c-0.007812-7.7969 3.8242-15.094 10.246-19.516 6.418-4.4258 14.602-5.4062 21.887-2.6211 7.2812 2.7812 12.727 8.9688 14.559 16.547 1.8359 7.5781-0.17578 15.57-5.3789 21.375 3.8984 4.3359 6.0508 9.957 6.0469 15.785z"/>
  <path d="m376 210.25h-221c-4.3594 0-7.8906 3.5312-7.8906 7.8906v268.36h38.121c4.543 0.007813 8.8945 1.8125 12.105 5.0234 3.2109 3.2109 5.0156 7.5625 5.0234 12.105v38.121h173.64c2.0938 0 4.1016-0.83203 5.582-2.3125 1.4805-1.4805 2.3125-3.4844 2.3125-5.5781v-315.72c0-2.0938-0.83203-4.1016-2.3125-5.582-1.4805-1.4805-3.4883-2.3086-5.582-2.3086zm-31.57 236.79h-157.86c-4.3594 0-7.8945-3.5352-7.8945-7.8945s3.5352-7.8906 7.8945-7.8906h157.86c4.3594 0 7.8945 3.5312 7.8945 7.8906s-3.5352 7.8945-7.8945 7.8945zm0-55.25h-157.86c-4.3594 0-7.8945-3.5352-7.8945-7.8945s3.5352-7.8945 7.8945-7.8945h157.86c4.3594 0 7.8945 3.5352 7.8945 7.8945s-3.5352 7.8945-7.8945 7.8945zm0-55.25-157.86-0.003906c-4.3594 0-7.8945-3.5312-7.8945-7.8906s3.5352-7.8945 7.8945-7.8945h157.86c4.3594 0 7.8945 3.5352 7.8945 7.8945s-3.5352 7.8906-7.8945 7.8906zm0-55.25-157.86-0.003906c-4.3594 0-7.8945-3.5352-7.8945-7.8945s3.5352-7.8906 7.8945-7.8906h157.86c4.3594 0 7.8945 3.5312 7.8945 7.8906s-3.5352 7.8945-7.8945 7.8945z"/>
  <path d="m185.23 502.29h-26.961l28.305 28.305v-26.961c0.011719-0.35937-0.125-0.71094-0.37891-0.96484-0.25391-0.25391-0.60547-0.39062-0.96484-0.37891z"/>
 </g>
</svg>
