<?xml version="1.0" encoding="UTF-8"?>
<svg width="752pt" height="752pt" version="1.1" viewBox="0 0 752 752" xmlns="http://www.w3.org/2000/svg">
 <g>
  <path d="m322.51 389.01h-19.934c0.40625-1.0195 0.92578-1.9375 1.5547-2.7539 1.5078-1.8867 4.3438-3.9648 8.4883-6.2461 3.8242-2.1094 6.4297-4.0312 7.8125-5.7734 1.3828-1.7383 2.0781-3.9648 2.0781-6.668 0-3.1836-1.082-5.7734-3.2422-7.7773-2.1758-2.0195-4.9648-3.0352-8.3633-3.0352-3.9727 0-7.082 1.1562-9.3008 3.457-2.2266 2.3008-3.3086 5.4766-3.2422 9.5234h4.4609c0.082032-2.8633 0.77734-5.0781 2.0781-6.6367 1.3008-1.5625 3.0859-2.3398 5.3633-2.3398 2.1758 0 3.957 0.62109 5.3555 1.8633 1.3906 1.2422 2.0859 2.8398 2.0859 4.8008 0 1.8711-0.46484 3.4023-1.3984 4.5938-0.93359 1.1914-2.6875 2.5-5.2539 3.9297-5.2852 2.9062-8.8867 5.5859-10.812 8.043-1.9258 2.4492-2.8789 5.6094-2.8789 9.4648v0.007813h25.137z"/>
  <path d="m319.83 462.86c-0.67969-0.53906-1.4648-1.0156-2.3477-1.3984 0.47266-0.27344 0.91797-0.57813 1.3242-0.91797 2.1367-1.7539 3.2109-4.0469 3.2109-6.8828 0-2.8555-1.0664-5.1562-3.1953-6.8984-2.1328-1.7383-4.9414-2.6133-8.4297-2.6133-3.6836 0-6.543 1.043-8.5547 3.1445-2.0117 2.1016-3.0195 5.0781-3.0195 8.918h4.4609c0.11719-2.6484 0.75391-4.6484 1.9102-5.9805s2.8203-1.9961 4.9961-1.9961c2.0586 0 3.7461 0.53906 5.0625 1.6484 1.3164 1.0938 1.9766 2.5156 1.9766 4.2461 0 1.8438-0.62109 3.2695-1.8633 4.293-0.91797 0.79297-2.1172 1.2734-3.5977 1.4648-0.76172 0.10547-1.5391 0.15625-2.3242 0.15625s-1.3633-0.042969-1.7305-0.125v4.0039c0.25-0.066406 0.76953-0.10547 1.5391-0.10547s1.5898 0.023438 2.457 0.074219c1.8711 0.13281 3.3945 0.74609 4.5859 1.8359 1.3906 1.2578 2.0859 2.9609 2.0859 5.0977 0 2.043-0.72656 3.707-2.168 5.0039-1.4414 1.3008-3.3008 1.9531-5.5664 1.9531-2.6211 0-4.5586-0.62109-5.793-1.8516-1.2422-1.2344-1.9961-3.2695-2.2734-6.1289h-4.7969c0.18359 4.0781 1.3242 7.1055 3.418 9.0859 2.0938 1.9844 5.1953 2.9766 9.3086 2.9766 3.7383 0 6.8008-1.0938 9.1758-3.2773 2.3828-2.1836 3.5664-4.9883 3.5664-8.4219 0.019531-3.0742-1.125-5.5078-3.418-7.3047z"/>
  <path d="m376 154.01c-122.41 0-221.99 99.582-221.99 221.99s99.586 221.99 221.99 221.99 221.99-99.586 221.99-221.99c-0.003906-122.41-99.59-221.99-222-221.99zm-64.695 98.117c13.496 0 25.27 7.2812 31.691 18.105h65.945l15.516 18.75-15.516 18.75h-65.945c-6.4219 10.824-18.188 18.105-31.691 18.105-20.355 0-36.859-16.5-36.859-36.859 0.003907-20.348 16.504-36.852 36.859-36.852zm0.12109 87.016c13.496 0 25.27 7.2812 31.691 18.105h91.816l15.508 18.75-15.516 18.75-91.816 0.003906c-6.4219 10.824-18.188 18.105-31.684 18.105-20.355 0-36.859-16.5-36.859-36.859 0-20.355 16.5-36.855 36.859-36.855zm149.49 142.63h-117.68c-6.4219 10.824-18.188 18.105-31.684 18.105-20.355 0-36.859-16.5-36.859-36.859 0-20.355 16.5-36.859 36.859-36.859 13.496 0 25.27 7.2812 31.691 18.105h117.68l15.516 18.75z"/>
  <path d="m309.89 307.91h4.8672v-36.711h-3.7461c-0.76172 2.4141-1.9453 4.1953-3.543 5.3516-1.582 1.1406-3.6406 1.6797-6.1719 1.6367v3.6719h8.5898z"/>
 </g>
</svg>
