<?xml version="1.0" encoding="UTF-8"?>
<svg width="752pt" height="752pt" version="1.1" viewBox="0 0 752 752" xmlns="http://www.w3.org/2000/svg">
 <g>
  <path d="m594.32 308.28-104.66-135.92c-12.312-16.102-36.465-16.102-48.777 0l-105.14 135.92c-15.629 20.363-1.4219 49.727 24.625 49.727h53.043v215.95c0 9.9453 8.0508 17.996 17.996 17.996l67.723-0.003906c9.9453 0 17.996-8.0508 17.996-17.996v-215.95h53.039c25.574 0 39.781-29.836 24.152-49.723z"/>
  <path d="m312.07 459.35h-35.516v-286.99c0-6.6289-5.2109-11.84-11.84-11.84h-45.465c-6.6289 0-11.84 5.2109-11.84 11.84v286.99h-35.52c-17.051 0-26.992 19.891-16.574 33.152l70.09 90.926c8.0508 10.891 24.625 10.891 32.676 0l70.566-90.926c10.418-13.262 0.94531-33.152-16.578-33.152z"/>
 </g>
</svg>
