<?xml version="1.0" encoding="UTF-8"?>
<svg width="752pt" height="752pt" version="1.1" viewBox="0 0 752 752" xmlns="http://www.w3.org/2000/svg">
 <path d="m376 524c9.9883-0.003906 19.934-1.2734 29.602-3.7734v55.57c-0.011718 4.082-3.3203 7.3867-7.4023 7.3984h-44.398c-4.082-0.011718-7.3867-3.3164-7.3984-7.3984v-55.57c9.668 2.5 19.613 3.7695 29.598 3.7734zm-66.598-258.99h37v25.973c19.41-5.0352 39.785-5.0352 59.199 0v-25.973h37-0.003906c2.8594 0 5.4648-1.6445 6.6875-4.2305 1.2266-2.582 0.85156-5.6406-0.96094-7.8555l-66.598-81.398v0.003906c-1.4492-1.6406-3.5352-2.582-5.7266-2.582-2.1875 0-4.2734 0.94141-5.7266 2.582l-66.598 81.398v-0.003906c-1.8086 2.2148-2.1836 5.2734-0.96094 7.8555 1.2266 2.5859 3.8281 4.2305 6.6875 4.2305zm133.2 140.59c0 17.66-7.0156 34.602-19.504 47.09-12.492 12.488-29.43 19.508-47.094 19.508-17.66 0-34.602-7.0195-47.09-19.508-12.488-12.488-19.508-29.43-19.508-47.09 0-17.664 7.0195-34.602 19.508-47.094 12.488-12.488 29.43-19.504 47.09-19.504 17.656 0.019532 34.586 7.043 47.07 19.527 12.484 12.484 19.508 29.414 19.527 47.07zm-73.996-51.801c0 2.9961 1.8047 5.6914 4.5664 6.8398 2.7656 1.1445 5.9492 0.51172 8.0664-1.6055 2.1172-2.1172 2.75-5.3008 1.6016-8.0664-1.1445-2.7617-3.8398-4.5664-6.8359-4.5664-4.0859 0-7.3984 3.3125-7.3984 7.3984zm-37 51.797v0.003906c0-2.9961-1.8008-5.6914-4.5664-6.8359-2.7656-1.1484-5.9492-0.51562-8.0625 1.6016-2.1172 2.1172-2.75 5.3008-1.6055 8.0664 1.1445 2.7617 3.8438 4.5664 6.8359 4.5664 1.9648 0 3.8438-0.78125 5.2344-2.168 1.3867-1.3867 2.1641-3.2695 2.1641-5.2305zm51.797 51.797 0.003906 0.003907c0-2.9922-1.8047-5.6914-4.5703-6.8359s-5.9453-0.51172-8.0625 1.6016c-2.1172 2.1172-2.75 5.3008-1.6055 8.0664 1.1445 2.7656 3.8438 4.5664 6.8359 4.5664 1.9648 0 3.8477-0.77734 5.2344-2.168 1.3867-1.3867 2.168-3.2695 2.168-5.2305zm12.633-42.23-12.629-12.629v-26.535c0-4.0859-3.3125-7.3984-7.4023-7.3984-4.0859 0-7.3984 3.3125-7.3984 7.3984v29.602c0 1.9609 0.78125 3.8438 2.168 5.2305l14.801 14.801c2.8945 2.8438 7.543 2.8203 10.414-0.046874 2.8711-2.8711 2.8945-7.5195 0.046875-10.418zm39.16-9.5625c0-2.9961-1.8008-5.6914-4.5664-6.8359-2.7656-1.1484-5.9492-0.51562-8.0625 1.6016-2.1172 2.1172-2.75 5.3008-1.6055 8.0664 1.1445 2.7617 3.8438 4.5664 6.8359 4.5664 1.9609 0 3.8438-0.78125 5.2344-2.168 1.3867-1.3867 2.1641-3.2695 2.1641-5.2305zm44.406 0c0 27.473-10.914 53.824-30.344 73.254-19.426 19.426-45.777 30.34-73.254 30.34-27.473 0-53.824-10.914-73.25-30.34-19.43-19.43-30.344-45.781-30.344-73.254 0-27.477 10.914-53.828 30.344-73.254 19.426-19.43 45.777-30.344 73.25-30.344 27.469 0.03125 53.801 10.957 73.223 30.379 19.418 19.418 30.344 45.75 30.375 73.219zm-22.199 0c0-21.59-8.5742-42.293-23.84-57.559s-35.969-23.84-57.559-23.84c-21.586 0-42.289 8.5742-57.555 23.84-15.266 15.266-23.84 35.969-23.84 57.559 0 21.586 8.5742 42.289 23.84 57.555 15.266 15.266 35.969 23.84 57.555 23.84 21.582-0.023438 42.27-8.6055 57.531-23.867 15.258-15.258 23.844-35.949 23.867-57.527z"/>
</svg>
