<?xml version="1.0" encoding="UTF-8" standalone="no"?>
<svg
   width="457.79022pt"
   height="442.00018pt"
   version="1.1"
   viewBox="0 -7.895 457.79021 442.00017"
   id="svg16"
   xmlns="http://www.w3.org/2000/svg"
   xmlns:svg="http://www.w3.org/2000/svg">
  <defs
     id="defs20" />
  <g
     id="g14"
     transform="translate(-147.1094,-162.895)">
    <path
       d="m 431.25,226.04 v 142.07 h -31.574 v 15.785 h 31.57 l 0.004,142.07 c 0,6.2812 2.4922,12.305 6.9336,16.742 4.4414,4.4414 10.465,6.9375 16.742,6.9375 h 23.68 v -15.785 h -23.68 c -4.3555,0 -7.8906,-3.5352 -7.8906,-7.8945 v -142.07 h 31.57 V 368.11 h -31.57 V 226.04 c 0,-4.3594 3.5352,-7.8945 7.8906,-7.8945 h 23.68 v -15.785 h -23.68 c -6.2773,0 -12.301,2.4961 -16.742,6.9336 -4.4414,4.4414 -6.9336,10.465 -6.9336,16.746 z"
       id="path2" />
    <path
       d="m 581.22,155 h -63.145 c -6.2773,0 -12.301,2.4961 -16.742,6.9375 -4.4414,4.4414 -6.9336,10.461 -6.9336,16.742 v 63.145 c 0,6.2812 2.4922,12.305 6.9336,16.742 4.4414,4.4414 10.465,6.9375 16.742,6.9375 h 63.145 c 6.2812,0 12.305,-2.4961 16.746,-6.9375 4.4375,-4.4375 6.9336,-10.461 6.9336,-16.742 v -63.145 c 0,-6.2812 -2.4961,-12.301 -6.9336,-16.742 C 593.5246,157.4961 587.501,155 581.22,155 Z m -15.785,94.719 h -31.57 c -4.3594,0 -7.8945,-3.5352 -7.8945,-7.8945 0,-4.3594 3.5352,-7.8945 7.8945,-7.8945 h 7.8945 l -0.004,-36.195 -2.3125,2.3125 c -3.0977,2.9922 -8.0195,2.9492 -11.062,-0.0977 -3.0469,-3.043 -3.0898,-7.9648 -0.0976,-11.062 l 15.785,-15.785 v -0.004 c 2.2578,-2.2539 5.6523,-2.9297 8.6016,-1.707 2.9492,1.2188 4.8711,4.0977 4.8711,7.2891 v 55.25 h 7.8945 c 4.3594,0 7.8945,3.5352 7.8945,7.8945 0,4.3594 -3.5352,7.8945 -7.8945,7.8945 z"
       id="path4" />
    <path
       d="m 581.22,320.75 h -63.145 c -6.2773,0 -12.301,2.4961 -16.742,6.9375 -4.4414,4.4375 -6.9336,10.461 -6.9336,16.742 v 63.145 c 0,6.2812 2.4922,12.301 6.9336,16.742 4.4414,4.4414 10.465,6.9375 16.742,6.9375 h 63.145 c 6.2812,0 12.305,-2.4961 16.746,-6.9375 4.4375,-4.4414 6.9336,-10.461 6.9336,-16.742 v -63.145 c 0,-6.2812 -2.4961,-12.305 -6.9336,-16.742 -4.4414,-4.4414 -10.465,-6.9375 -16.746,-6.9375 z m -15.785,78.93 c 4.3594,0 7.8945,3.5352 7.8945,7.8945 0,4.3593 -3.5352,7.8906 -7.8945,7.8906 h -31.57 c -4.3594,0 -7.8945,-3.5312 -7.8945,-7.8906 0,-15.785 10.504,-23.68 18.941,-29.992 8.0664,-6.0469 12.629,-9.8438 12.629,-17.363 v -0.004 c 0,-4.3594 -3.5312,-7.8906 -7.8906,-7.8906 -4.3594,0 -7.8945,3.5312 -7.8945,7.8906 0,4.3594 -3.5312,7.8945 -7.8906,7.8945 -4.3594,0 -7.8945,-3.5352 -7.8945,-7.8945 0,-8.4609 4.5117,-16.277 11.84,-20.508 7.3242,-4.2266 16.352,-4.2266 23.68,0 7.3242,4.2305 11.84,12.047 11.84,20.508 0,15.785 -10.504,23.68 -18.941,29.992 h -0.004 c -3.9336,2.582 -7.4219,5.7773 -10.332,9.4727 z"
       id="path6" />
    <path
       d="m 581.22,486.5 h -63.145 c -6.2773,0 -12.301,2.4961 -16.742,6.9336 -4.4414,4.4414 -6.9336,10.465 -6.9336,16.746 v 63.145 c 0,6.2773 2.4922,12.301 6.9336,16.742 4.4414,4.4414 10.465,6.9336 16.742,6.9336 h 63.145 c 6.2812,0 12.305,-2.4922 16.746,-6.9336 4.4375,-4.4414 6.9336,-10.465 6.9336,-16.742 v -63.145 c 0,-6.2812 -2.4961,-12.305 -6.9336,-16.746 C 593.5246,488.9961 587.501,486.5 581.22,486.5 Z m -7.8945,71.039 0.004,-0.004 c 0,8.4609 -4.5156,16.277 -11.84,20.508 -7.3281,4.2305 -16.355,4.2305 -23.68,0 -7.3281,-4.2305 -11.84,-12.047 -11.84,-20.508 0,-4.3594 3.5352,-7.8906 7.8945,-7.8906 4.3593,0 7.8906,3.5312 7.8906,7.8906 0,3.1953 1.9258,6.0703 4.875,7.293 2.9492,1.2227 6.3438,0.54688 8.6016,-1.7109 2.2578,-2.2578 2.9297,-5.6523 1.7109,-8.6016 -1.2227,-2.9492 -4.1016,-4.8711 -7.293,-4.8711 -4.3594,0 -7.8945,-3.5352 -7.8945,-7.8945 0,-4.3593 3.5352,-7.8906 7.8945,-7.8906 3.1914,0 6.0703,-1.9258 7.293,-4.875 1.2188,-2.9492 0.54688,-6.3438 -1.7109,-8.6016 -2.2578,-2.2578 -5.6523,-2.9336 -8.6016,-1.7109 -2.9492,1.2227 -4.875,4.1016 -4.875,7.293 0,4.3594 -3.5312,7.8945 -7.8906,7.8945 -4.3594,0 -7.8945,-3.5352 -7.8945,-7.8945 -0.008,-7.7969 3.8242,-15.094 10.246,-19.516 6.418,-4.4258 14.602,-5.4062 21.887,-2.6211 7.2812,2.7812 12.727,8.9688 14.559,16.547 1.8359,7.5781 -0.17578,15.57 -5.3789,21.375 3.8984,4.3359 6.0508,9.957 6.0469,15.785 z"
       id="path8" />
    <path
       d="M 376,210.25 H 155 c -4.3594,0 -7.8906,3.5312 -7.8906,7.8906 v 268.36 h 38.121 c 4.543,0.008 8.8945,1.8125 12.105,5.0234 3.2109,3.2109 5.0156,7.5625 5.0234,12.105 v 38.121 h 173.64 c 2.0938,0 4.1016,-0.83203 5.582,-2.3125 1.4805,-1.4805 2.3125,-3.4844 2.3125,-5.5781 v -315.72 c 0,-2.0938 -0.83203,-4.1016 -2.3125,-5.582 -1.4805,-1.4805 -3.4883,-2.3086 -5.582,-2.3086 z M 344.43,447.04 H 186.57 c -4.3594,0 -7.8945,-3.5352 -7.8945,-7.8945 0,-4.3593 3.5352,-7.8906 7.8945,-7.8906 h 157.86 c 4.3594,0 7.8945,3.5312 7.8945,7.8906 0,4.3594 -3.5352,7.8945 -7.8945,7.8945 z m 0,-55.25 H 186.57 c -4.3594,0 -7.8945,-3.5352 -7.8945,-7.8945 0,-4.3593 3.5352,-7.8945 7.8945,-7.8945 h 157.86 c 4.3594,0 7.8945,3.5352 7.8945,7.8945 0,4.3593 -3.5352,7.8945 -7.8945,7.8945 z m 0,-55.25 -157.86,-0.004 c -4.3594,0 -7.8945,-3.5312 -7.8945,-7.8906 0,-4.3594 3.5352,-7.8945 7.8945,-7.8945 h 157.86 c 4.3594,0 7.8945,3.5352 7.8945,7.8945 0,4.3593 -3.5352,7.8906 -7.8945,7.8906 z m 0,-55.25 -157.86,-0.004 c -4.3594,0 -7.8945,-3.5352 -7.8945,-7.8945 0,-4.3593 3.5352,-7.8906 7.8945,-7.8906 h 157.86 c 4.3594,0 7.8945,3.5312 7.8945,7.8906 0,4.3594 -3.5352,7.8945 -7.8945,7.8945 z"
       id="path10" />
    <path
       d="m 185.23,502.29 h -26.961 l 28.305,28.305 v -26.961 c 0.0117,-0.35937 -0.125,-0.71094 -0.37891,-0.96484 -0.25391,-0.25391 -0.60547,-0.39062 -0.96484,-0.37891 z"
       id="path12" />
  </g>
</svg>
